PathFileType  4	(X/Y/Z) C:\Users\antoi\Documents\MyRepositories\mobilecap\ResultsAnalysis
DataRate	CameraRate	NumFrames	NumMarkers	Units	OrigDataRate	OrigDataStartFrame	OrigNumFrames
100.0	100.0	4	51	mm	100.0	31	121
Frame#	Time	r_knee			r_shank_antsup			r_ankle			r_calc			r_5meta			r_toe			L_knee			L_shank_antsup			L_ankle			L_calc			L_5meta			L_toe			r_sh2			r_sh3			r_sh4			L_sh2			L_sh3			r_thigh1			r_thigh2			r_thigh3			r_thigh4			r_thigh5			L_thigh1			L_thigh2			L_thigh3			L_thigh4			r.ASIS			r.PSIS			L.ASIS			L.PSIS			C7			R_Shoulder			L_Shoulder			R_Sternum			L_Sternum			R_humerus			R_elbow_med			R_elbow_lat			R_forearm			R_wrist_radius			R_wrist_ulna			L_humerus			L_elbow_med			L_elbow_lat			L_forearm			L_wrist_radius			L_wrist_ulna			R_HJC			L_HJC			R_HJC_reg			L_HJC_reg			
		X1	Y1	Z1	X2	Y2	Z2	X3	Y3	Z3	X4	Y4	Z4	X5	Y5	Z5	X6	Y6	Z6	X7	Y7	Z7	X8	Y8	Z8	X9	Y9	Z9	X10	Y10	Z10	X11	Y11	Z11	X12	Y12	Z12	X13	Y13	Z13	X14	Y14	Z14	X15	Y15	Z15	X16	Y16	Z16	X17	Y17	Z17	X18	Y18	Z18	X19	Y19	Z19	X20	Y20	Z20	X21	Y21	Z21	X22	Y22	Z22	X23	Y23	Z23	X24	Y24	Z24	X25	Y25	Z25	X26	Y26	Z26	X27	Y27	Z27	X28	Y28	Z28	X29	Y29	Z29	X30	Y30	Z30	X31	Y31	Z31	X32	Y32	Z32	X33	Y33	Z33	X34	Y34	Z34	X35	Y35	Z35	X36	Y36	Z36	X37	Y37	Z37	X38	Y38	Z38	X39	Y39	Z39	X40	Y40	Z40	X41	Y41	Z41	X42	Y42	Z42	X43	Y43	Z43	X44	Y44	Z44	X45	Y45	Z45	X46	Y46	Z46	X47	Y47	Z47	X48	Y48	Z48	X49	Y49	Z49	X50	Y50	Z50	X51	Y51	Z51	

31	0.30000000	207.41215	462.14400	-42.31689	207.42824	387.33857	-25.05221	136.71100	93.90157	-82.37815	61.87598	62.41021	-118.10988	236.65615	45.19522	-63.90977	276.51336	63.27621	-123.01711	359.93754	493.19972	-319.42465	366.45365	419.66875	-318.69544	196.68672	165.51025	-265.52215	123.70899	168.10746	-212.65734	254.20337	77.38837	-291.65413	313.21323	78.62499	-242.57304	189.22581	276.40467	-29.27244	133.15997	398.78723	-32.33973	106.89397	287.05569	-42.54144	288.85316	463.49013	-332.51141	237.58740	353.40769	-322.47626	289.51446	777.11825	-30.51729	296.35811	662.12831	-30.86710	247.71586	638.58225	10.78590	194.37084	771.60380	33.05426	190.87482	655.65923	15.01879	300.88310	778.87440	-327.38241	364.47043	658.25804	-330.31014	196.43650	727.79654	-341.27266	271.71700	604.05061	-338.04841	272.85573	923.64537	-33.53459	85.74704	936.22857	-98.48023	258.79919	920.32463	-289.15242	76.96611	926.48931	-204.32765	153.85734	1402.77015	-147.15305	221.04731	1344.80808	0.27898	196.64083	1350.44787	-315.66101	269.42807	1317.06492	-139.56038	264.21210	1317.23992	-183.92519	251.52620	1108.67531	80.28613	209.03663	999.90501	38.67985	233.83675	1023.33704	102.52415	310.73590	925.88169	111.79734	357.89046	815.93600	113.53364	320.05393	801.83712	131.79348	222.12128	1221.14597	-372.71807	159.11504	1010.39500	-333.03653	162.15395	1021.99266	-394.66651	209.72436	926.70232	-426.55054	227.82976	801.36232	-426.02242	193.79989	792.25789	-436.52112	208.48494	846.27034	-56.65269	200.89335	844.95305	-256.79988	210.68251	849.43921	-57.60369	196.77313	834.00942	-225.29530	
32	0.31000000	211.09110	461.91596	-42.00012	210.17704	387.13815	-24.79366	137.04112	94.26492	-82.57153	62.12592	62.86354	-118.25141	236.76193	45.12466	-63.88244	276.80944	63.03757	-122.98891	378.05662	495.22823	-317.14735	387.63293	422.41161	-317.45604	235.67713	156.43177	-266.97296	162.56371	153.27424	-214.35082	299.42135	72.95754	-293.77284	358.26546	78.04691	-244.53212	190.87734	276.37499	-29.12281	136.11090	399.26853	-32.40352	108.76841	287.79039	-42.78278	307.15280	461.19794	-329.98356	263.37860	347.96070	-321.37657	300.15664	775.51772	-29.88743	304.58603	660.35549	-30.20144	255.05771	637.79957	10.92018	204.39750	771.60565	33.04326	198.73689	655.70601	14.77237	315.77576	780.30996	-325.94899	381.03616	660.51823	-327.37632	212.39159	728.02494	-342.34313	288.93970	605.26406	-338.14149	285.25082	922.62883	-32.73089	98.49363	936.05769	-98.89228	272.12861	919.85773	-288.61744	90.08663	926.23331	-204.78712	167.82524	1402.59766	-147.17014	234.64511	1344.47541	0.28752	210.44462	1349.94234	-315.75715	283.25232	1316.67333	-139.44389	278.03449	1316.75170	-183.85471	267.32463	1109.11114	80.89692	226.25336	999.38598	39.76735	250.82047	1023.49171	103.54018	330.53145	928.25909	112.26690	381.54389	819.87707	113.18022	344.10976	804.46368	131.19524	233.62311	1220.34737	-373.34081	167.41921	1010.68029	-333.74480	169.94252	1022.56589	-395.31193	214.02785	926.36195	-428.77131	228.49386	800.52645	-429.63031	194.76089	792.24094	-439.12142	220.66358	845.53936	-56.49074	214.03243	844.54484	-256.67286	222.77550	849.04985	-56.99621	209.44978	833.47591	-224.86328	
33	0.32000000	215.06026	461.64142	-41.76266	213.20662	386.87322	-24.60435	137.38040	94.64661	-82.78463	62.35144	63.35083	-118.41164	236.86623	45.04847	-63.86626	277.11292	62.80520	-122.94311	395.19022	496.50693	-314.79284	407.99656	424.68005	-316.09001	275.27385	147.76815	-268.60480	202.55104	138.80941	-216.25487	344.92048	69.41653	-296.04719	403.29789	78.33050	-246.62770	192.74487	276.30447	-29.03825	139.34737	399.72651	-32.45991	110.86502	288.50483	-42.98042	324.81883	457.97506	-327.64915	289.14004	341.97485	-320.43962	310.82361	773.71293	-29.43301	312.84411	658.43018	-29.74476	262.50989	636.88741	10.90145	214.62447	771.41544	32.93630	206.74842	655.61468	14.50937	330.46957	781.18419	-324.45105	397.02106	662.00726	-324.32596	228.19226	728.04456	-343.21842	305.43197	606.03675	-337.93880	297.78697	921.37263	-32.06036	111.32056	935.59362	-99.33788	285.60714	919.17818	-288.21534	103.31260	925.67166	-205.28816	181.79179	1402.14297	-147.24157	248.23473	1343.84572	0.25230	224.23800	1349.18317	-315.90516	297.06147	1315.99096	-139.37093	291.84360	1315.99434	-183.84956	283.21861	1109.25834	81.33523	243.38954	998.62685	40.84961	267.88692	1023.42213	104.48543	350.19438	930.39997	112.55123	404.77316	823.59996	112.65583	367.83620	806.98012	130.52475	245.12408	1219.36023	-374.00570	175.84941	1010.78973	-334.47818	177.87741	1022.94624	-395.96225	218.47385	926.02729	-430.95850	229.60436	799.81704	-433.18372	196.26533	792.34186	-441.60864	233.01519	844.55061	-56.43428	227.30477	843.89653	-256.64513	235.00528	848.42519	-56.53040	222.30455	832.68824	-224.57525	
34	0.33000000	219.36317	461.30988	-41.61469	216.53542	386.53876	-24.48858	137.74746	95.05348	-83.01661	62.56383	63.88073	-118.59002	236.97180	44.97011	-63.85973	277.41447	62.56035	-122.88101	411.33500	496.96100	-312.39468	427.53972	426.44787	-314.55974	315.33104	139.73346	-270.37972	243.55005	124.95790	-218.27663	390.53956	66.98749	-298.46034	448.13497	79.71877	-248.87318	194.84156	276.19290	-29.01296	142.89272	400.17067	-32.53107	113.19747	289.21655	-43.15830	341.96246	453.84306	-325.62399	314.90563	335.54841	-319.75303	321.53719	771.72724	-29.13925	321.19994	656.38285	-29.48244	270.15079	635.84278	10.74073	225.02273	771.04208	32.77399	214.93918	655.38472	14.24325	345.01950	781.43531	-322.93888	412.38912	662.63206	-321.22885	243.78483	727.78902	-343.85842	321.15321	606.25370	-337.37959	310.45444	919.89601	-31.54471	124.23978	934.88405	-99.82690	299.26690	918.31022	-287.93862	116.64915	924.84045	-205.83033	195.76279	1401.40834	-147.36494	261.84060	1342.95177	0.16165	238.01173	1348.19917	-316.08792	310.84928	1315.02577	-139.34506	305.65394	1314.98164	-183.90747	299.17706	1109.15115	81.61402	260.44286	997.66797	41.91602	285.03425	1023.16803	105.35351	369.72474	932.30789	112.61056	427.54370	827.09181	111.90346	391.21331	809.38244	129.76901	256.65217	1218.22091	-374.70002	184.46462	1010.74424	-335.21210	185.96804	1023.17165	-396.60252	223.10313	925.71130	-433.10405	231.15359	799.22490	-436.66319	198.21412	792.64233	-443.99478	245.53482	843.33220	-56.48616	240.71753	843.03666	-256.72086	247.37302	847.62090	-56.21263	235.32827	831.68434	-224.41401	
